<svg xmlns:xlink="http://www.w3.org/1999/xlink" class="detail__information__highlight__icon detail__information__highlight__icon--arrow" xmlns="http://www.w3.org/2000/svg" viewBox="0 0 40 40" style="transform: translate(0px, 0px); opacity: 1; visibility: inherit;" width="40"  height="40" ><path stroke="#F9F1E7" d="M14.84,25.46l11.31-11.31" data-svg-origin="20.4950008392334 19.804998874664307" style="transform-origin: 0px 0px; opacity: 1; visibility: inherit;" transform="matrix(1,0,0,1,0,0)"></path><path fill="#F9F1E7" d="M30.75,9.55l-0.66,2.36l-0.05,2.59l-1.93-2.31l-2.31-1.93l2.59-0.05L30.75,9.55z" data-svg-origin="28.27500057220459 12.025000095367432" style="transform-origin: 0px 0px; opacity: 1; visibility: inherit;" transform="matrix(1,0,0,1,0,0)"></path><path fill="#F9F1E7" d="M10.25,30.05l0.66-2.36l0.05-2.59l1.93,2.31l2.31,1.93l-2.59,0.05L10.25,30.05z" data-svg-origin="12.725000381469727 27.57499885559082" style="transform-origin: 0px 0px; opacity: 1; visibility: inherit;" transform="matrix(1,0,0,1,0,0)"></path><path fill="none" stroke="#F9F1E7" d="M20,0.5c10.77,0,19.5,8.73,19.5,19.5S30.77,39.5,20,39.5S0.5,30.77,0.5,20S9.23,0.5,20,0.5z"></path></svg>